<?xml version="1.0" encoding="UTF-8" standalone="no"?>
<!-- Created with Inkscape (http://www.inkscape.org/) -->

<svg
   width="57.696445mm"
   height="9.705924mm"
   viewBox="0 0 57.696445 9.705924"
   version="1.1"
   id="svg1"
   xmlns="http://www.w3.org/2000/svg"
   xmlns:svg="http://www.w3.org/2000/svg">
  <defs
     id="defs1" />
  <g
     id="layer1"
     transform="translate(-20.796217,-74.398125)">
    <path
    fill="currentColor"
       d="m 24.764967,74.398123 q -0.489893,0.415479 -0.489893,1.010791 0,0.589112 0.322461,1.184424 0.328662,0.589111 0.762744,1.00459 0.434082,0.415478 0.669727,0.663525 0.241846,0.241846 0.539502,0.589112 0.303857,0.341064 0.47749,0.613916 0.427881,0.663525 0.427881,1.16582 0,0.496094 -0.21084,0.923975 -0.204639,0.42788 -0.589111,0.781347 -0.378272,0.347266 -0.973584,0.576709 -0.589111,0.229444 -1.302246,0.260449 0.198437,-0.285254 0.198437,-0.595312 0,-0.31626 -0.130224,-0.638721 -0.130225,-0.328662 -0.396875,-0.700732 -0.427881,-0.601514 -0.961182,-1.178223 -0.5271,-0.576709 -0.737939,-0.824756 -0.204639,-0.248047 -0.465088,-0.626318 -0.508496,-0.731738 -0.508496,-1.469678 0,-0.737939 0.452685,-1.370459 0.452686,-0.632519 1.221631,-0.998388 0.775146,-0.36587 1.69292,-0.372071 z m 2.06499,3.745508 q 0,-0.601514 -0.217041,-1.240234 -0.427881,-1.246436 -1.426269,-2.00918 0.0124,-0.111621 0.210839,-0.26665 0.198438,-0.15503 0.328663,-0.15503 0.452685,0 1.054199,0.179834 0.607715,0.179834 0.961181,0.347266 0.03101,0.186035 0.03101,0.651123 0,0.458887 -0.08682,1.153418 -0.08682,0.68833 -0.21084,1.091406 -0.03721,0.09302 -0.26665,0.173633 -0.223243,0.07441 -0.378272,0.07441 z m -2.970361,4.489648 q -0.07441,0.42168 -0.229444,0.564307 -0.651123,0 -1.53789,-0.167432 -0.886768,-0.167431 -1.289844,-0.42788 -0.0062,-0.136426 -0.0062,-0.390674 0,-1.209229 0.285254,-2.294434 0.02481,-0.09922 0.21084,-0.248047 0.186035,-0.155029 0.334863,-0.155029 0.142627,0.682129 0.508496,1.370459 0.37207,0.68833 0.837158,1.16582 0.471289,0.471289 0.886767,0.58291 z m 8.805664,0.564307 q 0.905371,-0.756543 1.345654,-2.207617 0.446485,-1.451074 0.446485,-3.050977 0,-1.606103 -0.328663,-2.902148 0,-0.08682 0.198438,-0.248047 0.204639,-0.167432 0.347266,-0.167432 0.899169,0.173633 1.531689,0.750342 1.203027,1.097608 1.203027,3.044776 0,1.48208 -0.74414,2.672705 -0.824756,1.333252 -2.269629,1.835546 -0.79375,0.272852 -1.730127,0.272852 z m 1.234033,-8.725049 q -0.911572,0.762744 -1.358057,2.207618 -0.446484,1.444873 -0.446484,3.057177 0,1.612305 0.341065,2.889746 0,0.08682 -0.204639,0.254248 -0.198438,0.167432 -0.347266,0.167432 -1.364258,-0.272852 -2.06499,-1.364258 -0.669727,-1.047998 -0.669727,-2.424658 0,-1.48208 0.744141,-2.685107 0.818555,-1.32085 2.269629,-1.823145 0.79375,-0.279053 1.736328,-0.279053 z m 7.72666,8.601026 h -2.889746 q 0.830957,-3.007569 1.227832,-8.036719 0,-0.08062 0.204639,-0.241846 0.204639,-0.16123 0.347265,-0.16123 h 2.877344 q -0.880566,3.751709 -1.227832,8.024316 0,0.08061 -0.198437,0.248047 -0.198438,0.167432 -0.341065,0.167432 z m 3.317627,-3.106787 q 0.09302,-0.179834 0.353467,-0.322461 0.260449,-0.142627 0.47749,-0.142627 -0.303857,2.654101 -0.440283,3.119189 -0.05581,0.130225 -0.223242,0.291455 -0.167432,0.161231 -0.272852,0.161231 h -2.387451 q 0.73794,-0.551905 1.389063,-1.376661 0.651123,-0.830957 1.103808,-1.730126 z m 5.705078,3.23081 q 0.905371,-0.756543 1.345655,-2.207617 0.446484,-1.451074 0.446484,-3.050977 0,-1.606103 -0.328662,-2.902148 0,-0.08682 0.198437,-0.248047 0.204639,-0.167432 0.347266,-0.167432 0.89917,0.173633 1.531689,0.750342 1.203028,1.097608 1.203028,3.044776 0,1.48208 -0.744141,2.672705 -0.824756,1.333252 -2.269629,1.835546 -0.79375,0.272852 -1.730127,0.272852 z m 1.234033,-8.725049 q -0.911572,0.762744 -1.358056,2.207618 -0.446484,1.444873 -0.446484,3.057177 0,1.612305 0.341064,2.889746 0,0.08682 -0.204639,0.254248 -0.198437,0.167432 -0.347265,0.167432 -1.364258,-0.272852 -2.064991,-1.364258 -0.669726,-1.047998 -0.669726,-2.424658 0,-1.48208 0.744141,-2.685107 0.818554,-1.32085 2.269628,-1.823145 0.79375,-0.279053 1.736328,-0.279053 z"
       id="text1"
       style="font-size:12.7px;line-height:6.61458px;font-family:'Emblema One';-inkscape-font-specification:'Emblema One, Normal';letter-spacing:0px;word-spacing:0px;stroke-width:0.264583"
       aria-label="SOLO" />
    <path
    fill="currentColor"
       d="m 59.747468,83.09116 q -0.8001,0 -1.1684,-0.5334 l -1.0668,0.762 h -0.2413 l 1.4224,-8.3185 q -0.381,0.0381 -0.635,0.3556 l -0.1905,-0.1524 q 0.381,-0.4572 0.9525,-0.4572 0.5842,0 0.9017,0.2921 0.3175,0.2921 0.3175,0.8255 0,0.1016 -0.0254,0.3302 -0.2032,1.1303 -0.4953,2.7178 0.5334,-0.8636 1.3843,-0.8636 0.8509,0 1.308099,0.4953 0.4572,0.4826 0.4572,1.3335 0,1.4986 -0.812799,2.3622 -0.8128,0.8509 -2.1082,0.8509 z m -0.0889,-0.3429 q 0.6985,0 1.1303,-0.9652 0.4445,-0.9779 0.4445,-2.4257 0,-0.5842 -0.127,-0.8001 -0.1143,-0.2159 -0.4318,-0.2159 -0.3175,0 -0.6604,0.381 -0.3302,0.381 -0.4826,0.7239 -0.1524,0.3302 -0.1524,0.381 h -0.0254 q -0.3175,1.6637 -0.4699,2.5146 0.2159,0.4064 0.7747,0.4064 z m 8.115305,0.3429 q -1.1176,0 -1.2192,-0.9779 -0.5588,0.9779 -1.4097,0.9779 -0.8509,0 -1.3589,-0.508 -0.4953,-0.5207 -0.4953,-1.4478 0,-1.4478 0.7112,-2.2733 0.7112,-0.8255 1.8415,-0.8255 0.9271,0 1.2319,0.8763 0.0635,-0.381 0.1397,-0.762 0.9398,0 1.397,-0.0762 l 0.1651,-0.0381 -0.8763,4.8006 q 0.381,-0.0381 0.635,-0.3556 l 0.1905,0.1524 q -0.381,0.4572 -0.9525,0.4572 z m -3.048,-1.3081 q 0,0.5715 0.1397,0.8001 0.1524,0.2159 0.4572,0.2159 0.3048,0 0.6223,-0.3302 0.4191,-0.4318 0.6731,-1.0922 0.0381,-0.1651 0.1397,-0.7874 0.1143,-0.635 0.1905,-1.0414 -0.0381,-0.4826 -0.2667,-0.8382 -0.2286,-0.3556 -0.5715,-0.3556 -0.6223,0 -1.0033,1.1176 -0.381,1.1049 -0.381,2.3114 z m 5.90549,0.9779 q 1.2573,0 1.2573,-1.8542 0,-0.4572 -0.1397,-1.0795 -0.127,-0.6223 -0.1524,-0.7747 -0.7747,0.8001 -1.7399,0.9652 v -0.3048 q 0.9144,-0.2032 1.7145,-1.0414 v -0.0508 q 0,-0.3048 0.0889,-0.5969 0.0889,-0.2921 0.1778,-0.4318 l 0.0889,-0.1397 h 0.3048 q 0,0.5588 0.1778,1.0287 0.1778,0.4572 0.3937,0.7493 0.2159,0.2794 0.3937,0.7493 0.1778,0.4572 0.1778,1.016 0,0.9017 -0.6858,1.4986 -0.6731,0.5969 -1.6256,0.5969 -0.9525,0 -1.4478,-0.4318 -0.4826,-0.4318 -0.4826,-0.9906 0,-0.5715 0.2794,-0.8128 0.2794,-0.254 0.6604,-0.254 0.381,0 0.6223,0.254 0.254,0.2413 0.254,0.635 0,0.381 -0.2413,0.6477 -0.2413,0.2667 -0.6223,0.2667 -0.1651,0 -0.3429,-0.0508 0.2794,0.4064 0.889,0.4064 z m 6.223001,-4.7244 q 1.6129,0 1.6129,1.2827 0,0.8001 -0.762,1.2192 -0.7493,0.4064 -2.1463,0.4191 -0.0254,0.4572 -0.0254,0.7239 0,0.5715 0.254,0.8509 0.2667,0.2667 0.6604,0.2667 0.3937,0 0.7112,-0.1524 0.3302,-0.1524 0.5207,-0.3556 0.1905,-0.2159 0.3302,-0.4445 0.254,-0.4191 0.254,-0.5334 l 0.2286,0.1016 q -0.0381,0.2032 -0.2286,0.5461 -0.1905,0.3302 -0.4191,0.5461 -0.2286,0.2159 -0.6731,0.4064 -0.4445,0.1778 -0.9906,0.1778 -1.0287,0 -1.5621,-0.4826 -0.5207,-0.4953 -0.5207,-1.3462 0,-1.5113 0.7493,-2.3622 0.7493,-0.8636 2.0066,-0.8636 z m 1.2954,1.2827 q 0,-0.4191 -0.254,-0.6858 -0.2413,-0.2794 -0.7366,-0.2794 -0.4826,0 -0.9525,0.5842 -0.4572,0.5842 -0.6096,1.7272 2.5527,-0.0127 2.5527,-1.3462 z"
       id="text2"
       style="font-size:12.7px;line-height:6.61458px;font-family:Sail;-inkscape-font-specification:'Sail, Normal';letter-spacing:0px;word-spacing:0px;stroke-width:0.264583"
       aria-label="base" />
    <path
    fill="currentColor"
       style="fill:none;stroke:currentColor;stroke-width:0.264583px;stroke-linecap:butt;stroke-linejoin:miter;stroke-opacity:1"
       d="M 58.681553,83.971753 H 75.828749"
       id="path5" />
  </g>
</svg>
